<svg xmlns="http://www.w3.org/2000/svg" width="512.001" height="396.033" viewBox="0 0 512.001 396.033">
  <g id="Group_86" data-name="Group 86" transform="translate(-541 -587)">
    <path id="Path_45" data-name="Path 45" d="M305.7,173.95a106.9,106.9,0,1,0,106.9,106.9,107.021,107.021,0,0,0-106.9-106.9Zm0,198.8a91.9,91.9,0,1,1,91.9-91.9A92,92,0,0,1,305.7,372.75Z" transform="translate(541 529.016)" fill="#8f1b45"/>
    <path id="Path_46" data-name="Path 46" d="M305.7,240.217a40.633,40.633,0,1,0,40.633,40.633A40.68,40.68,0,0,0,305.7,240.217Zm0,66.266a25.633,25.633,0,1,1,25.633-25.633A25.662,25.662,0,0,1,305.7,306.483Z" transform="translate(541 529.016)" fill="#8f1b45"/>
    <path id="Path_47" data-name="Path 47" d="M471.366,140.817H444.1A25.509,25.509,0,0,1,420.3,124.7L403.827,83.526A40.437,40.437,0,0,0,366.1,57.984H228.732A40.439,40.439,0,0,0,191,83.526L174.534,124.7a25.512,25.512,0,0,1-23.8,16.114H114.4V123.183a15.517,15.517,0,0,0-15.5-15.5H65.2a15.517,15.517,0,0,0-15.5,15.5v17.634H40.633A40.679,40.679,0,0,0,0,181.45V413.383a40.679,40.679,0,0,0,40.633,40.633H194.52a7.5,7.5,0,0,0,0-15H180.667V421.383a15.517,15.517,0,0,0-15.5-15.5H147.534v-183.8h31.08a139.205,139.205,0,0,0-12.946,58.767c0,77.214,62.819,140.033,140.034,140.033,69.01,0,126.514-50.18,137.957-115.967H454.8a24.066,24.066,0,0,0,0-48.133H443.657a138.855,138.855,0,0,0-10.87-34.7H497V269.6c0,4.142,2.046,53.45,6.189,53.45S512,273.742,512,269.6V181.45a40.679,40.679,0,0,0-40.634-40.633ZM64.7,123.183a.5.5,0,0,1,.5-.5H98.9a.5.5,0,0,1,.5.5v17.634H64.7ZM40.633,155.817h91.9v51.267H15V181.45a25.662,25.662,0,0,1,25.633-25.633ZM165.666,421.383v17.633H114.4V421.383a.5.5,0,0,1,.5-.5h50.267A.5.5,0,0,1,165.666,421.383Zm-33.133-15.5H114.9a15.517,15.517,0,0,0-15.5,15.5v17.633H40.633A25.661,25.661,0,0,1,15,413.383V338.05H40.633a7.5,7.5,0,0,0,0-15H15V304.917H40.633a7.5,7.5,0,0,0,0-15H15V271.784H40.633a7.5,7.5,0,0,0,0-15H15v-34.7H132.533Zm173.167,0A125.033,125.033,0,1,1,430.733,280.85,125.175,125.175,0,0,1,305.7,405.883Zm149.1-134.1a9.066,9.066,0,0,1,0,18.133h-9.368c.193-3,.3-6.02.3-9.066s-.109-6.068-.3-9.067Zm-30.124-64.7a139.938,139.938,0,0,0-237.952,0H147.533V155.816h3.2a40.439,40.439,0,0,0,37.727-25.543L204.932,89.1a25.511,25.511,0,0,1,23.8-16.113H366.1A25.51,25.51,0,0,1,389.9,89.1l16.472,41.177A40.438,40.438,0,0,0,444.1,155.816h27.268A25.662,25.662,0,0,1,497,181.449v25.633H424.676Z" transform="translate(541 529.016)" fill="#8f1b45"/>
    <path id="Path_48" data-name="Path 48" d="M507.877,229.688c-4.143,0-10.187,54.733-10.187,58.875L497,413.384a25.662,25.662,0,0,1-25.634,25.633H224.519a7.5,7.5,0,0,0,0,15H471.367A40.68,40.68,0,0,0,512,413.384V299.6c0-4.143.019-69.912-4.124-69.912Z" transform="translate(541 529.016)" fill="#8f1b45"/>
    <path id="Path_49" data-name="Path 49" d="M355.4,107.683H239.433a7.5,7.5,0,0,0,0,15H355.4a7.5,7.5,0,0,0,0-15Z" transform="translate(541 529.016)" fill="#8f1b45"/>
    <path id="Path_50" data-name="Path 50" d="M471.366,420.883a7.5,7.5,0,0,0,7.5-7.5V380.25a7.5,7.5,0,0,0-7.5-7.5H438.233a7.5,7.5,0,0,0-7.5,7.5v33.133a7.5,7.5,0,0,0,7.5,7.5ZM445.733,387.75h18.133v18.133H445.733Z" transform="translate(541 529.016)" fill="#8f1b45"/>
    <rect id="Rectangle_103" data-name="Rectangle 103" width="52" height="15" transform="translate(733 968)" fill="#8f1b45"/>
  </g>
</svg>
